<svg xmlns="http://www.w3.org/2000/svg" width="43.841" height="60.382" viewBox="0 0 43.841 60.382">
  <g id="组_28" data-name="组 28" transform="translate(81.141 -4234.764)">
    <path id="路径_25" data-name="路径 25" d="M21.377,3.22A20.877,20.877,0,1,0,42.254,24.1,20.874,20.874,0,0,0,21.377,3.22Zm0,38.563A17.686,17.686,0,1,1,39.063,24.1,17.68,17.68,0,0,1,21.377,41.783Z" transform="translate(-80.588 4237.609)" fill="#e84441"/>
    <path id="路径_26" data-name="路径 26" d="M21.122,1.12.81,41.725H41.415Z" transform="translate(-80.333 4235.88)" fill="#fff" stroke="#2b2d2d" stroke-miterlimit="10" stroke-width="2"/>
    <path id="路径_27" data-name="路径 27" d="M.81,6.15l6.455,12.8h7.2l.948,4.54h11.4l.948-4.54h7.2l6.455-12.8Z" transform="translate(-80.333 4240.021)" fill="#fff"/>
    <path id="路径_28" data-name="路径 28" d="M0,5.65,7.384,20.273H14.4l.748,3.628h1.86l-1.13-5.452H8.5L2.954,7.473H40.605L35.062,18.45H27.678L26.548,23.9h1.86l.748-3.628h7.038L43.559,5.65Z" transform="translate(-81 4239.609)" fill="#2b2d2d"/>
    <g id="组_26" data-name="组 26" transform="translate(-77.645 4245.259)">
      <path id="路径_29" data-name="路径 29" d="M3.7,15.988A17.712,17.712,0,0,1,13.837,5.65h-6.4a20.923,20.923,0,0,0-5.6,6.637Z" transform="translate(-1.84 -5.65)" fill="#e84441"/>
      <path id="路径_30" data-name="路径 30" d="M21.87,5.65h-6.4A17.712,17.712,0,0,1,25.608,15.988l1.86-3.683A20.565,20.565,0,0,0,21.87,5.65Z" transform="translate(9.382 -5.65)" fill="#e84441"/>
    </g>
    <path id="路径_31" data-name="路径 31" d="M9.95,21.03,13.6,38.424,17.225,21.03Z" transform="translate(-72.808 4252.272)" fill="#fff"/>
    <path id="路径_32" data-name="路径 32" d="M16.715,21.03l-2.7,12.946L11.3,21.03H9.44l4.577,21.843L18.575,21.03Z" transform="translate(-73.228 4252.272)" fill="#2b2d2d"/>
    <path id="路径_33" data-name="路径 33" d="M13.473,24.518A18.721,18.721,0,0,1,10.1,24.19l.693,3.337a21.519,21.519,0,0,0,2.662.182,21.278,21.278,0,0,0,2.662-.182l.693-3.337A16.7,16.7,0,0,1,13.473,24.518Z" transform="translate(-72.684 4254.874)" fill="#e84441"/>
    <g id="组_27" data-name="组 27" transform="translate(-67.362 4264.532)">
      <path id="路径_34" data-name="路径 34" d="M13.515,23.924H11.692L11.4,22.63H9.559l-.31,1.295H7.48L9.522,16.23h1.951Zm-2.443-2.662c-.255-1.149-.456-2.243-.583-3.264H10.47c-.146,1.058-.328,2.152-.583,3.264h1.185Z" transform="translate(-7.48 -16.212)" fill="#2b2d2d"/>
      <path id="路径_35" data-name="路径 35" d="M10.77,16.23h4.175v1.75h-1.2v5.944H11.973V18H10.788V16.23Z" transform="translate(-4.771 -16.212)" fill="#2b2d2d"/>
      <path id="路径_36" data-name="路径 36" d="M13.63,16.238h1.787v5.415a.886.886,0,0,0,.2.6.688.688,0,0,0,.547.219.706.706,0,0,0,.565-.237,1.043,1.043,0,0,0,.2-.656V16.22h1.787v5.069a4.2,4.2,0,0,1-.273,1.659,1.884,1.884,0,0,1-.8.912,2.986,2.986,0,0,1-1.477.292A2.4,2.4,0,0,1,14.2,23.44a3.891,3.891,0,0,1-.565-2.407Z" transform="translate(-2.417 -16.22)" fill="#2b2d2d"/>
    </g>
  </g>
</svg>
